<svg xmlns="http://www.w3.org/2000/svg" width="65" height="65" viewBox="0 0 65 65">
    <g data-name="그룹 69366" transform="translate(-805.256 181.318)">
        <rect data-name="사각형 15472" width="65" height="65" rx="32.5" transform="translate(805.256 -181.318)" style="fill:#dc000c"/>
        <g data-name="그룹 69367">
            <g data-name="8665462_heart_love_valentine_icon" style="fill:none">
                <path d="M35.071 49.736 20.728 64.569a2.36 2.36 0 0 1-3.41 0L2.968 49.737a10.689 10.689 0 0 1 .68-15.423c4.03-3.489 10.2-2.855 13.909.974l1.463 1.506 1.463-1.506a10.22 10.22 0 0 1 13.912-.974 10.69 10.69 0 0 1 .676 15.422z" style="stroke:none" transform="translate(818.736 -195.237)"/>
                <path d="M19.022 63.297c.07 0 .173-.02.268-.118l14.343-14.833c1.626-1.681 2.498-4.013 2.392-6.396-.107-2.399-1.148-4.571-2.933-6.119-1.393-1.183-3.114-1.808-4.98-1.808-2.3 0-4.557.968-6.195 2.659l-2.897 2.981-2.9-2.984c-1.634-1.688-3.9-2.656-6.219-2.656-1.873 0-3.582.623-4.943 1.802-1.792 1.553-2.838 3.73-2.944 6.132-.105 2.38.767 4.71 2.392 6.39l14.35 14.832a.364.364 0 0 0 .266.118m0 2a2.363 2.363 0 0 1-1.704-.727L2.968 49.737c-4.167-4.309-3.936-11.424.68-15.423 4.03-3.49 10.202-2.856 13.909.974l1.463 1.506 1.463-1.506c3.71-3.83 9.812-4.464 13.912-.974 4.612 3.991 4.842 11.114.676 15.422L20.728 64.57a2.365 2.365 0 0 1-1.706.728z" style="fill:#fff;stroke:none" transform="translate(818.736 -195.237)"/>
            </g>
            <g data-name="9025038_wheelchair_acessibility_icon" transform="translate(823.256 -160.545)">
                <path data-name="사각형 15473" style="fill:none" d="M0 0h26.087v26.087H0z"/>
                <circle data-name="타원 2115" cx="1.933" cy="1.933" transform="translate(7.447 2.543)" style="stroke:#fff;stroke-linecap:round;stroke-linejoin:round;stroke-width:2px;fill:none" r="1.933"/>
                <path data-name="패스 18453" d="M95.9 60v6.96h8.507l4.26 9.031 3.17-3.21" transform="translate(-86.52 -53.59)" style="stroke:#fff;stroke-linecap:round;stroke-linejoin:round;stroke-width:2px;fill:none"/>
                <path data-name="패스 18454" d="M52.287 102.574A6.187 6.187 0 1 1 46.109 96h5.414" transform="translate(-36.394 -85.672)" style="stroke:#fff;stroke-linecap:round;stroke-linejoin:round;stroke-width:2px;fill:none"/>
            </g>
        </g>
    </g>
</svg>
